<mxfile host="app.diagrams.net" modified="2021-05-28T09:15:41.995Z" agent="5.0 (Macintosh; Intel Mac OS X 10_14_6) AppleWebKit/537.36 (KHTML, like Gecko) Chrome/91.0.4472.77 Safari/537.36" etag="meSdw0mmchVpgFeM3HDK" version="14.7.2" type="github" pages="3">
  <diagram id="oZ6OT-w0LU34OBG3YGw4" name="Page-1">
    <mxGraphModel dx="1055" dy="542" grid="1" gridSize="10" guides="1" tooltips="1" connect="1" arrows="1" fold="1" page="1" pageScale="1" pageWidth="827" pageHeight="1169" math="0" shadow="0">
      <root>
        <mxCell id="0" />
        <mxCell id="1" parent="0" />
        <mxCell id="bmSTbRMtAKye2mg7BdR1-6" value="" style="edgeStyle=orthogonalEdgeStyle;rounded=0;orthogonalLoop=1;jettySize=auto;html=1;" edge="1" parent="1" source="bmSTbRMtAKye2mg7BdR1-1" target="bmSTbRMtAKye2mg7BdR1-2">
          <mxGeometry relative="1" as="geometry" />
        </mxCell>
        <mxCell id="bmSTbRMtAKye2mg7BdR1-1" value="代码" style="ellipse;whiteSpace=wrap;html=1;" vertex="1" parent="1">
          <mxGeometry x="344" y="100" width="70" height="40" as="geometry" />
        </mxCell>
        <mxCell id="bmSTbRMtAKye2mg7BdR1-2" value="是否有格式化问题" style="rhombus;whiteSpace=wrap;html=1;" vertex="1" parent="1">
          <mxGeometry x="314" y="160" width="130" height="60" as="geometry" />
        </mxCell>
        <mxCell id="bmSTbRMtAKye2mg7BdR1-18" value="" style="edgeStyle=orthogonalEdgeStyle;rounded=0;orthogonalLoop=1;jettySize=auto;html=1;" edge="1" parent="1" source="bmSTbRMtAKye2mg7BdR1-3" target="bmSTbRMtAKye2mg7BdR1-4">
          <mxGeometry relative="1" as="geometry" />
        </mxCell>
        <mxCell id="bmSTbRMtAKye2mg7BdR1-3" value="抽象语法树解析" style="rounded=0;whiteSpace=wrap;html=1;" vertex="1" parent="1">
          <mxGeometry x="317" y="260" width="121.5" height="30" as="geometry" />
        </mxCell>
        <mxCell id="bmSTbRMtAKye2mg7BdR1-19" value="" style="edgeStyle=orthogonalEdgeStyle;rounded=0;orthogonalLoop=1;jettySize=auto;html=1;" edge="1" parent="1" source="bmSTbRMtAKye2mg7BdR1-4" target="bmSTbRMtAKye2mg7BdR1-5">
          <mxGeometry relative="1" as="geometry" />
        </mxCell>
        <mxCell id="bmSTbRMtAKye2mg7BdR1-4" value="问题代码节点处理" style="rounded=0;whiteSpace=wrap;html=1;" vertex="1" parent="1">
          <mxGeometry x="317.75" y="320" width="120" height="30" as="geometry" />
        </mxCell>
        <mxCell id="bmSTbRMtAKye2mg7BdR1-23" value="" style="edgeStyle=orthogonalEdgeStyle;rounded=0;orthogonalLoop=1;jettySize=auto;html=1;" edge="1" parent="1" source="bmSTbRMtAKye2mg7BdR1-5" target="bmSTbRMtAKye2mg7BdR1-21">
          <mxGeometry relative="1" as="geometry">
            <Array as="points">
              <mxPoint x="378" y="440" />
              <mxPoint x="378" y="440" />
            </Array>
          </mxGeometry>
        </mxCell>
        <mxCell id="bmSTbRMtAKye2mg7BdR1-5" value="重新写入和 git提交" style="rounded=0;whiteSpace=wrap;html=1;" vertex="1" parent="1">
          <mxGeometry x="317.75" y="380" width="120" height="30" as="geometry" />
        </mxCell>
        <mxCell id="bmSTbRMtAKye2mg7BdR1-14" value="" style="edgeStyle=orthogonalEdgeStyle;rounded=0;orthogonalLoop=1;jettySize=auto;html=1;entryX=0.5;entryY=0;entryDx=0;entryDy=0;" edge="1" parent="1" target="bmSTbRMtAKye2mg7BdR1-3">
          <mxGeometry relative="1" as="geometry">
            <mxPoint x="378" y="220" as="sourcePoint" />
            <mxPoint x="378" y="240" as="targetPoint" />
          </mxGeometry>
        </mxCell>
        <mxCell id="bmSTbRMtAKye2mg7BdR1-20" value="是" style="text;html=1;align=center;verticalAlign=middle;resizable=0;points=[];autosize=1;strokeColor=none;" vertex="1" parent="1">
          <mxGeometry x="365" y="230" width="30" height="20" as="geometry" />
        </mxCell>
        <mxCell id="bmSTbRMtAKye2mg7BdR1-21" value="代码和入主干" style="rounded=0;whiteSpace=wrap;html=1;" vertex="1" parent="1">
          <mxGeometry x="320" y="440" width="190" height="30" as="geometry" />
        </mxCell>
        <mxCell id="bmSTbRMtAKye2mg7BdR1-22" value="" style="edgeStyle=segmentEdgeStyle;endArrow=classic;html=1;entryX=0.868;entryY=-0.045;entryDx=0;entryDy=0;entryPerimeter=0;exitX=1;exitY=0.5;exitDx=0;exitDy=0;" edge="1" parent="1" source="bmSTbRMtAKye2mg7BdR1-2" target="bmSTbRMtAKye2mg7BdR1-21">
          <mxGeometry width="50" height="50" relative="1" as="geometry">
            <mxPoint x="414" y="120" as="sourcePoint" />
            <mxPoint x="464" y="70" as="targetPoint" />
          </mxGeometry>
        </mxCell>
        <mxCell id="bmSTbRMtAKye2mg7BdR1-24" value="否" style="edgeLabel;html=1;align=center;verticalAlign=middle;resizable=0;points=[];" vertex="1" connectable="0" parent="bmSTbRMtAKye2mg7BdR1-22">
          <mxGeometry x="-0.779" y="-2" relative="1" as="geometry">
            <mxPoint as="offset" />
          </mxGeometry>
        </mxCell>
      </root>
    </mxGraphModel>
  </diagram>
  <diagram id="RGy6wC8RKtWexvBUq6LR" name="遍历语法树">
    <mxGraphModel dx="1055" dy="542" grid="1" gridSize="10" guides="1" tooltips="1" connect="1" arrows="1" fold="1" page="1" pageScale="1" pageWidth="827" pageHeight="1169" math="0" shadow="0">
      <root>
        <mxCell id="0IxtqWDLejFDvcq7yaBE-0" />
        <mxCell id="0IxtqWDLejFDvcq7yaBE-1" parent="0IxtqWDLejFDvcq7yaBE-0" />
        <mxCell id="uiPB-gj4lBZh2_mtIpzg-0" value="" style="edgeStyle=orthogonalEdgeStyle;rounded=0;orthogonalLoop=1;jettySize=auto;html=1;" edge="1" parent="0IxtqWDLejFDvcq7yaBE-1" source="uiPB-gj4lBZh2_mtIpzg-1">
          <mxGeometry relative="1" as="geometry">
            <mxPoint x="377.75" y="140" as="targetPoint" />
          </mxGeometry>
        </mxCell>
        <mxCell id="uiPB-gj4lBZh2_mtIpzg-1" value="读取抽象语法树" style="ellipse;whiteSpace=wrap;html=1;" vertex="1" parent="0IxtqWDLejFDvcq7yaBE-1">
          <mxGeometry x="330.75" y="80" width="94" height="40" as="geometry" />
        </mxCell>
        <mxCell id="uiPB-gj4lBZh2_mtIpzg-3" value="" style="edgeStyle=orthogonalEdgeStyle;rounded=0;orthogonalLoop=1;jettySize=auto;html=1;" edge="1" parent="0IxtqWDLejFDvcq7yaBE-1" source="uiPB-gj4lBZh2_mtIpzg-4" target="uiPB-gj4lBZh2_mtIpzg-6">
          <mxGeometry relative="1" as="geometry" />
        </mxCell>
        <mxCell id="uiPB-gj4lBZh2_mtIpzg-4" value="与标准规则比较" style="rounded=0;whiteSpace=wrap;html=1;" vertex="1" parent="0IxtqWDLejFDvcq7yaBE-1">
          <mxGeometry x="317" y="250" width="121.5" height="30" as="geometry" />
        </mxCell>
        <mxCell id="uiPB-gj4lBZh2_mtIpzg-5" value="" style="edgeStyle=orthogonalEdgeStyle;rounded=0;orthogonalLoop=1;jettySize=auto;html=1;" edge="1" parent="0IxtqWDLejFDvcq7yaBE-1" source="uiPB-gj4lBZh2_mtIpzg-6">
          <mxGeometry relative="1" as="geometry">
            <mxPoint x="377.79999999999995" y="370" as="targetPoint" />
          </mxGeometry>
        </mxCell>
        <mxCell id="uiPB-gj4lBZh2_mtIpzg-6" value="添加或删除错误元素" style="rounded=0;whiteSpace=wrap;html=1;" vertex="1" parent="0IxtqWDLejFDvcq7yaBE-1">
          <mxGeometry x="317.75" y="310" width="120" height="30" as="geometry" />
        </mxCell>
        <mxCell id="uiPB-gj4lBZh2_mtIpzg-7" value="" style="edgeStyle=orthogonalEdgeStyle;rounded=0;orthogonalLoop=1;jettySize=auto;html=1;" edge="1" parent="0IxtqWDLejFDvcq7yaBE-1" target="uiPB-gj4lBZh2_mtIpzg-11">
          <mxGeometry relative="1" as="geometry">
            <Array as="points">
              <mxPoint x="377" y="430" />
              <mxPoint x="377" y="430" />
            </Array>
            <mxPoint x="377" y="420" as="sourcePoint" />
          </mxGeometry>
        </mxCell>
        <mxCell id="uiPB-gj4lBZh2_mtIpzg-17" value="是" style="edgeLabel;html=1;align=center;verticalAlign=middle;resizable=0;points=[];" vertex="1" connectable="0" parent="uiPB-gj4lBZh2_mtIpzg-7">
          <mxGeometry x="-0.1226" y="1" relative="1" as="geometry">
            <mxPoint as="offset" />
          </mxGeometry>
        </mxCell>
        <mxCell id="uiPB-gj4lBZh2_mtIpzg-9" value="" style="edgeStyle=orthogonalEdgeStyle;rounded=0;orthogonalLoop=1;jettySize=auto;html=1;entryX=0.5;entryY=0;entryDx=0;entryDy=0;" edge="1" parent="0IxtqWDLejFDvcq7yaBE-1" target="uiPB-gj4lBZh2_mtIpzg-4">
          <mxGeometry relative="1" as="geometry">
            <mxPoint x="378" y="220" as="sourcePoint" />
            <mxPoint x="378" y="240" as="targetPoint" />
          </mxGeometry>
        </mxCell>
        <mxCell id="uiPB-gj4lBZh2_mtIpzg-11" value="结束" style="rounded=0;whiteSpace=wrap;html=1;" vertex="1" parent="0IxtqWDLejFDvcq7yaBE-1">
          <mxGeometry x="318.51" y="460" width="121" height="30" as="geometry" />
        </mxCell>
        <mxCell id="uiPB-gj4lBZh2_mtIpzg-14" value="深度优先遍历每个元素" style="rounded=0;whiteSpace=wrap;html=1;" vertex="1" parent="0IxtqWDLejFDvcq7yaBE-1">
          <mxGeometry x="312.38" y="140" width="130.75" height="30" as="geometry" />
        </mxCell>
        <mxCell id="uiPB-gj4lBZh2_mtIpzg-15" value="是否遍历完毕" style="html=1;whiteSpace=wrap;aspect=fixed;shape=isoRectangle;" vertex="1" parent="0IxtqWDLejFDvcq7yaBE-1">
          <mxGeometry x="331.09000000000003" y="370" width="93.33" height="56" as="geometry" />
        </mxCell>
        <mxCell id="uiPB-gj4lBZh2_mtIpzg-20" value="" style="edgeStyle=elbowEdgeStyle;elbow=vertical;endArrow=classic;html=1;exitX=0.996;exitY=0.474;exitDx=0;exitDy=0;exitPerimeter=0;entryX=1;entryY=0.5;entryDx=0;entryDy=0;" edge="1" parent="0IxtqWDLejFDvcq7yaBE-1" source="uiPB-gj4lBZh2_mtIpzg-15" target="uiPB-gj4lBZh2_mtIpzg-14">
          <mxGeometry width="50" height="50" relative="1" as="geometry">
            <mxPoint x="550" y="400" as="sourcePoint" />
            <mxPoint x="590" y="190" as="targetPoint" />
            <Array as="points">
              <mxPoint x="560" y="397" />
            </Array>
          </mxGeometry>
        </mxCell>
        <mxCell id="uiPB-gj4lBZh2_mtIpzg-21" value="否" style="edgeLabel;html=1;align=center;verticalAlign=middle;resizable=0;points=[];" vertex="1" connectable="0" parent="uiPB-gj4lBZh2_mtIpzg-20">
          <mxGeometry x="-0.6978" y="3" relative="1" as="geometry">
            <mxPoint as="offset" />
          </mxGeometry>
        </mxCell>
        <mxCell id="uiPB-gj4lBZh2_mtIpzg-22" value="语法结构信息提取" style="rounded=0;whiteSpace=wrap;html=1;" vertex="1" parent="0IxtqWDLejFDvcq7yaBE-1">
          <mxGeometry x="313.64" y="190" width="130.75" height="30" as="geometry" />
        </mxCell>
        <mxCell id="uiPB-gj4lBZh2_mtIpzg-23" value="" style="edgeStyle=orthogonalEdgeStyle;rounded=0;orthogonalLoop=1;jettySize=auto;html=1;" edge="1" parent="0IxtqWDLejFDvcq7yaBE-1">
          <mxGeometry relative="1" as="geometry">
            <mxPoint x="378.51" y="170" as="sourcePoint" />
            <mxPoint x="378.51" y="190" as="targetPoint" />
          </mxGeometry>
        </mxCell>
      </root>
    </mxGraphModel>
  </diagram>
  <diagram id="sZSkn_hz8C66fbTn918f" name="git提交">
    <mxGraphModel dx="1055" dy="542" grid="1" gridSize="10" guides="1" tooltips="1" connect="1" arrows="1" fold="1" page="1" pageScale="1" pageWidth="827" pageHeight="1169" math="0" shadow="0">
      <root>
        <mxCell id="4QJFUUH052d_W1oY0zDh-0" />
        <mxCell id="4QJFUUH052d_W1oY0zDh-1" parent="4QJFUUH052d_W1oY0zDh-0" />
        <mxCell id="22QTkwVMvs4StREEsd52-0" value="" style="edgeStyle=orthogonalEdgeStyle;rounded=0;orthogonalLoop=1;jettySize=auto;html=1;" edge="1" parent="4QJFUUH052d_W1oY0zDh-1" source="22QTkwVMvs4StREEsd52-1">
          <mxGeometry relative="1" as="geometry">
            <mxPoint x="377.75" y="140" as="targetPoint" />
          </mxGeometry>
        </mxCell>
        <mxCell id="22QTkwVMvs4StREEsd52-1" value="格式化节点后" style="ellipse;whiteSpace=wrap;html=1;" vertex="1" parent="4QJFUUH052d_W1oY0zDh-1">
          <mxGeometry x="330.75" y="70" width="94" height="40" as="geometry" />
        </mxCell>
        <mxCell id="22QTkwVMvs4StREEsd52-17" value="" style="edgeStyle=orthogonalEdgeStyle;rounded=0;orthogonalLoop=1;jettySize=auto;html=1;" edge="1" parent="4QJFUUH052d_W1oY0zDh-1" source="22QTkwVMvs4StREEsd52-3" target="22QTkwVMvs4StREEsd52-16">
          <mxGeometry relative="1" as="geometry" />
        </mxCell>
        <mxCell id="22QTkwVMvs4StREEsd52-3" value="该文件自动提交至git" style="rounded=0;whiteSpace=wrap;html=1;" vertex="1" parent="4QJFUUH052d_W1oY0zDh-1">
          <mxGeometry x="317" y="250" width="121.5" height="30" as="geometry" />
        </mxCell>
        <mxCell id="22QTkwVMvs4StREEsd52-8" value="" style="edgeStyle=orthogonalEdgeStyle;rounded=0;orthogonalLoop=1;jettySize=auto;html=1;entryX=0.5;entryY=0;entryDx=0;entryDy=0;" edge="1" parent="4QJFUUH052d_W1oY0zDh-1" target="22QTkwVMvs4StREEsd52-3">
          <mxGeometry relative="1" as="geometry">
            <mxPoint x="378" y="220" as="sourcePoint" />
            <mxPoint x="378" y="240" as="targetPoint" />
          </mxGeometry>
        </mxCell>
        <mxCell id="22QTkwVMvs4StREEsd52-10" value="将该节点重新生成代码" style="rounded=0;whiteSpace=wrap;html=1;" vertex="1" parent="4QJFUUH052d_W1oY0zDh-1">
          <mxGeometry x="313.64" y="140" width="130.75" height="30" as="geometry" />
        </mxCell>
        <mxCell id="22QTkwVMvs4StREEsd52-14" value="写入所在文件位置" style="rounded=0;whiteSpace=wrap;html=1;" vertex="1" parent="4QJFUUH052d_W1oY0zDh-1">
          <mxGeometry x="313.64" y="190" width="130.75" height="30" as="geometry" />
        </mxCell>
        <mxCell id="22QTkwVMvs4StREEsd52-15" value="" style="edgeStyle=orthogonalEdgeStyle;rounded=0;orthogonalLoop=1;jettySize=auto;html=1;" edge="1" parent="4QJFUUH052d_W1oY0zDh-1">
          <mxGeometry relative="1" as="geometry">
            <mxPoint x="378.51" y="170" as="sourcePoint" />
            <mxPoint x="378.51" y="190" as="targetPoint" />
          </mxGeometry>
        </mxCell>
        <mxCell id="22QTkwVMvs4StREEsd52-16" value="最后代码和入主干" style="rounded=0;whiteSpace=wrap;html=1;" vertex="1" parent="4QJFUUH052d_W1oY0zDh-1">
          <mxGeometry x="317" y="310" width="121.5" height="30" as="geometry" />
        </mxCell>
      </root>
    </mxGraphModel>
  </diagram>
</mxfile>
